<?xml version="1.0" encoding="UTF-8"?>
<svg id="Main" xmlns="http://www.w3.org/2000/svg" viewBox="0 0 2596.36 1794.38">
  <defs>
    <style>
      .cls-1 {
        fill: #350066;
      }
    </style>
  </defs>
  <path class="cls-1" d="M1534.03,1090.75c-11.55-7.5-25.05-11.25-40.5-11.25s-29.29,3.86-41.06,11.59c-11.78,7.73-20.92,18.38-27.45,31.95-5.26,10.94-8.36,23.29-9.38,37.01h154.76c-.89-14.06-4-26.71-9.38-37.91-6.45-13.42-15.45-23.89-27-31.39Z"/>
  <path class="cls-1" d="M2034.54,734.36v-314.57h-210.31v-130.59H156.84v790.3h578.65v137.88h220.66v287.81h1483.37v-770.83h-404.98ZM668.08,885.6h-118.42l-46.75-323.07h-9.35l-46.75,323.07h-118.42l-47.79-363.58h68.04l35.32,315.8h9.35l45.71-315.8h118.42l45.71,315.8h9.35l35.32-315.8h68.04l-47.79,363.58ZM1460.67,522.02h68.56v363.58h-68.56v-363.58ZM833.25,885.6h-65.44v-257.62h65.44v257.62ZM830.65,586.43c-7.97,7.62-18.01,11.43-30.13,11.43s-21.73-3.81-29.86-11.43c-8.14-7.61-12.21-17.66-12.21-30.13s4.07-22.5,12.21-30.12c8.13-7.61,18.09-11.43,29.86-11.43s22.16,3.82,30.13,11.43c7.96,7.62,11.95,17.66,11.95,30.12s-3.98,22.51-11.95,30.13ZM1083.59,682h-70.64v134.01c0,10.39,4.84,15.58,14.54,15.58h49.86v54.02h-72.72c-16.97,0-30.73-5.28-41.29-15.84-10.57-10.56-15.84-24.67-15.84-42.33v-145.43h-64.41v-54.02h64.41v-79.99h65.44v79.99h70.64v54.02ZM1142.8,522.02h65.44v137.64h9.35c2.77-5.53,7.09-11.08,12.99-16.62,5.88-5.53,13.76-10.13,23.63-13.77,9.87-3.64,22.41-5.45,37.66-5.45,20.08,0,37.66,4.6,52.72,13.77,15.06,9.18,26.75,21.81,35.06,37.92,8.31,16.1,12.47,34.89,12.47,56.35v153.74h-65.45v-148.55c0-19.39-4.76-33.93-14.28-43.63-9.53-9.69-23.11-14.54-40.77-14.54-20.09,0-35.67,6.67-46.75,20-11.09,13.34-16.62,31.94-16.62,55.84v130.89h-65.44v-363.58ZM1290.93,1298.19h-30.82v-307.57h-110.7v-27.67h251.99v27.67h-110.47v307.57ZM1599.96,1185.7h-184.64c.4,16.97,3.61,32.14,9.71,45.45,6.53,14.25,15.82,25.35,27.9,33.3,12.07,7.95,26.44,11.92,43.08,11.92,11.85,0,22.54-2.02,32.06-6.07,9.52-4.05,17.55-9.64,24.07-16.76,6.52-7.12,11.21-15.33,14.06-24.64l29.03,2.02c-3.3,14.1-9.64,26.59-19.01,37.46-9.38,10.88-20.92,19.39-34.65,25.54-13.73,6.15-28.99,9.23-45.79,9.23-22.5,0-41.96-5.36-58.39-16.09-16.42-10.72-29.1-25.5-38.02-44.32-8.93-18.82-13.39-40.23-13.39-64.24s4.57-45.9,13.72-64.8c9.15-18.9,21.79-33.75,37.91-44.55,16.12-10.8,34.76-16.2,55.91-16.2,15.45,0,29.66,2.89,42.64,8.66,12.97,5.78,24.22,14.06,33.75,24.86,9.52,10.8,16.91,23.74,22.16,38.81,5.25,15.07,7.87,31.91,7.87,50.51v9.9ZM1834.96,1255.22c-5.55,9.45-12.64,17.77-21.26,24.97-8.63,7.2-18.45,12.79-29.47,16.76-11.02,3.97-22.99,5.96-35.89,5.96-21.6,0-40.58-5.32-56.92-15.97-16.35-10.65-29.14-25.35-38.36-44.1-9.23-18.75-13.84-40.27-13.84-64.57s4.61-46.08,13.84-64.91c9.22-18.82,22.01-33.6,38.36-44.32,16.35-10.72,35.32-16.09,56.92-16.09,12.9,0,24.86,1.99,35.89,5.96,11.02,3.98,20.81,9.53,29.36,16.65,8.55,7.13,15.6,15.41,21.15,24.86,5.55,9.45,9.37,19.73,11.47,30.82l-29.25,2.03c-1.65-7.5-4.39-14.47-8.21-20.92-3.82-6.45-8.66-12.11-14.51-16.99-5.85-4.87-12.6-8.7-20.25-11.47-7.65-2.77-16.2-4.16-25.65-4.16-16.35,0-30.45,4.2-42.3,12.6-11.85,8.4-21,20.02-27.45,34.87-6.45,14.85-9.68,31.88-9.68,51.07s3.23,36.15,9.68,50.85c6.45,14.7,15.6,26.21,27.45,34.54,11.85,8.32,25.95,12.49,42.3,12.49,9.45,0,18-1.31,25.65-3.94,7.65-2.62,14.32-6.41,20.02-11.36,5.7-4.95,10.46-10.69,14.29-17.21,3.82-6.52,6.64-13.53,8.44-21.04l29.7,2.03c-2.1,10.95-5.93,21.15-11.48,30.6ZM1849.18,885.6h-65.45v-148.55c0-19.39-4.76-33.93-14.28-43.63-9.53-9.69-23.11-14.54-40.77-14.54-20.09,0-35.67,6.67-46.75,20-11.09,13.34-16.62,31.94-16.62,55.84v130.89h-65.44v-257.62h64.4v33.76h9.35c4.16-9,11.95-17.57,23.37-25.71,11.43-8.13,28.74-12.21,51.94-12.21,20.08,0,37.66,4.6,52.72,13.77,15.06,9.18,26.75,21.81,35.06,37.92,8.31,16.1,12.47,34.89,12.47,56.35v153.74ZM2089.76,1298.19h-29.25v-150.97c0-21.15-5.7-37.54-17.1-49.16-11.4-11.62-26.77-17.44-46.12-17.44-13.05,0-24.79,2.67-35.21,7.99-10.43,5.33-18.71,13.24-24.86,23.74-6.15,10.5-9.22,23.4-9.22,38.7v147.15h-29.25v-335.24h29.25v132.88c6.36-11.79,14.5-21.03,24.41-27.69,14.62-9.82,31.39-14.74,50.29-14.74,16.65,0,31.53,3.57,44.66,10.69,13.12,7.13,23.47,17.48,31.05,31.05,7.57,13.58,11.36,30.34,11.36,50.29v152.77Z"/>
</svg>