<?xml version="1.0" encoding="UTF-8"?>
<svg id="Main" xmlns="http://www.w3.org/2000/svg" viewBox="0 0 2596.36 1794.38">
  <defs>
    <style>
      .cls-1 {
        fill: #350066;
      }
    </style>
  </defs>
  <path class="cls-1" d="M1517.33,1080.74c-10.95-7.11-23.76-10.67-38.4-10.67s-27.77,3.66-38.94,10.99c-11.17,7.33-19.84,17.42-26.03,30.3-4.99,10.38-7.93,22.09-8.9,35.1h146.76c-.85-13.34-3.79-25.33-8.89-35.95-6.12-12.73-14.65-22.65-25.6-29.76Z"/>
  <path class="cls-1" d="M1991.96,742.78v-298.31h-199.43v-123.83H122.3v749.43h637.79v130.75h209.25v272.93h1504.72v-730.97h-482.1ZM696.16,886.2h-112.3l-44.33-306.36h-8.87l-44.33,306.36h-112.3l-45.31-344.78h64.52l33.49,299.46h8.87l43.34-299.46h112.3l43.34,299.46h8.86l33.49-299.46h64.52l-45.31,344.78ZM1447.77,541.42h65.01v344.78h-65.01v-344.78ZM852.79,886.2h-62.06v-244.3h62.06v244.3ZM850.32,602.5c-7.56,7.23-17.08,10.84-28.57,10.84s-20.61-3.61-28.32-10.84c-7.72-7.22-11.58-16.75-11.58-28.57s3.86-21.34,11.58-28.57c7.71-7.22,17.15-10.84,28.32-10.84s21.01,3.62,28.57,10.84c7.55,7.23,11.33,16.75,11.33,28.57s-3.78,21.35-11.33,28.57ZM1090.19,693.13h-66.99v127.08c0,9.85,4.59,14.78,13.79,14.78h47.28v51.23h-68.96c-16.09,0-29.14-5-39.16-15.02-10.02-10.01-15.02-23.4-15.02-40.14v-137.91h-61.07v-51.22h61.07v-75.85h62.06v75.85h66.99v51.22ZM1146.33,541.42h62.06v130.52h8.87c2.63-5.25,6.72-10.5,12.31-15.76,5.58-5.25,13.05-9.61,22.41-13.05,9.36-3.45,21.26-5.17,35.71-5.17,19.04,0,35.71,4.36,49.99,13.05,14.28,8.71,25.37,20.69,33.25,35.96,7.88,15.27,11.82,33.08,11.82,53.44v145.79h-62.06v-140.87c0-18.39-4.52-32.18-13.54-41.37-9.03-9.19-21.92-13.79-38.66-13.79-19.05,0-33.82,6.33-44.33,18.96-10.51,12.65-15.76,30.29-15.76,52.95v124.12h-62.06v-344.78ZM1286.8,1277.45h-29.23v-291.66h-104.97v-26.24h238.96v26.24h-104.76v291.66ZM1579.85,1170.78h-175.09c.38,16.1,3.43,30.48,9.2,43.1,6.19,13.51,15.01,24.04,26.46,31.58,11.45,7.54,25.07,11.31,40.86,11.31,11.24,0,21.37-1.92,30.4-5.76,9.03-3.84,16.64-9.14,22.83-15.9,6.19-6.75,10.63-14.54,13.33-23.36l27.52,1.92c-3.13,13.37-9.14,25.21-18.03,35.52-8.89,10.31-19.84,18.38-32.86,24.22-13.02,5.83-27.49,8.75-43.42,8.75-21.33,0-39.79-5.09-55.37-15.26-15.57-10.17-27.6-24.18-36.06-42.03-8.46-17.85-12.69-38.15-12.69-60.91s4.34-43.53,13.01-61.45c8.68-17.92,20.66-32,35.95-42.24,15.29-10.24,32.96-15.36,53.02-15.36,14.65,0,28.12,2.74,40.43,8.21,12.3,5.48,22.97,13.33,32,23.57,9.03,10.24,16.03,22.51,21.02,36.81,4.98,14.29,7.47,30.26,7.47,47.9v9.39ZM1802.69,1236.7c-5.26,8.96-11.98,16.85-20.16,23.68-8.18,6.83-17.5,12.13-27.95,15.9-10.45,3.77-21.8,5.65-34.03,5.65-20.48,0-38.48-5.05-53.98-15.15-15.51-10.1-27.63-24.04-36.38-41.82-8.75-17.78-13.12-38.19-13.12-61.23s4.37-43.7,13.12-61.55c8.75-17.85,20.87-31.86,36.38-42.03,15.5-10.17,33.5-15.26,53.98-15.26,12.23,0,23.58,1.89,34.03,5.65,10.45,3.77,19.74,9.03,27.84,15.79,8.11,6.76,14.79,14.61,20.05,23.58,5.26,8.96,8.89,18.71,10.88,29.23l-27.74,1.92c-1.57-7.11-4.16-13.73-7.79-19.84-3.63-6.11-8.21-11.49-13.76-16.11-5.55-4.62-11.95-8.25-19.2-10.88-7.25-2.63-15.36-3.95-24.32-3.95-15.51,0-28.88,3.98-40.11,11.95-11.24,7.97-19.92,18.99-26.03,33.07-6.12,14.08-9.18,30.23-9.18,48.43s3.06,34.28,9.18,48.22c6.11,13.94,14.79,24.86,26.03,32.75,11.23,7.89,24.61,11.84,40.11,11.84,8.96,0,17.07-1.24,24.32-3.73,7.26-2.49,13.58-6.08,18.99-10.77,5.4-4.69,9.92-10.14,13.55-16.32,3.63-6.19,6.29-12.83,8-19.95l28.16,1.92c-1.99,10.39-5.62,20.06-10.88,29.02ZM1816.18,886.2h-62.06v-140.87c0-18.39-4.52-32.18-13.54-41.37-9.03-9.19-21.92-13.79-38.66-13.79-19.05,0-33.82,6.33-44.33,18.96-10.51,12.65-15.76,30.29-15.76,52.95v124.12h-62.06v-244.3h61.07v32.01h8.87c3.94-8.53,11.33-16.66,22.16-24.38,10.84-7.71,27.25-11.58,49.25-11.58,19.04,0,35.71,4.36,49.99,13.05,14.28,8.71,25.37,20.69,33.25,35.96,7.88,15.27,11.82,33.08,11.82,53.44v145.79ZM2044.32,1277.45h-27.74v-143.16c0-20.06-5.41-35.59-16.21-46.62-10.81-11.02-25.39-16.54-43.74-16.54-12.37,0-23.51,2.53-33.39,7.57-9.89,5.05-17.75,12.55-23.58,22.51-5.83,9.96-8.75,22.19-8.75,36.7v139.54h-27.74v-317.9h27.74v126c6.04-11.18,13.75-19.94,23.15-26.26,13.87-9.31,29.76-13.98,47.69-13.98,15.79,0,29.9,3.38,42.35,10.13,12.45,6.76,22.26,16.57,29.44,29.44,7.18,12.88,10.77,28.77,10.77,47.69v144.87Z"/>
</svg>