<?xml version="1.0" encoding="UTF-8"?>
<svg id="Main" xmlns="http://www.w3.org/2000/svg" viewBox="0 0 1800 1800">
  <defs>
    <style>
      .cls-1 {
        fill: #350066;
      }
    </style>
  </defs>
  <path class="cls-1" d="M771.49,1021.13c-10.8-7.01-23.42-10.52-37.86-10.52s-27.38,3.61-38.39,10.83-19.56,17.18-25.66,29.87c-4.92,10.23-7.85,21.77-8.81,34.6h144.74c-.83-13.15-3.77-24.97-8.79-35.44-6.03-12.55-14.44-22.33-25.24-29.34Z"/>
  <path class="cls-1" d="M1638.43,731.28v-269.47h-220.64v-137H16.21v752.37h178.47v144.65h231.5v253.35h1357.6v-743.9h-145.36ZM1166.57,525.55h54.59v289.47h-54.59v-289.47ZM617.22,528.85c6.48-6.06,14.4-9.1,23.78-9.1s17.64,3.03,23.99,9.1c6.34,6.06,9.51,14.06,9.51,23.98s-3.17,17.92-9.51,23.98c-6.34,6.06-14.34,9.1-23.99,9.1s-17.3-3.03-23.78-9.1c-6.48-6.06-9.72-14.06-9.72-23.98s3.24-17.92,9.72-23.98ZM667.04,609.9v205.11h-52.11v-205.11h52.11ZM396.59,557.8l-37.22,257.21h-94.29l-38.04-289.47h54.17l28.12,251.42h7.45l36.39-251.42h94.29l36.39,251.42h7.45l28.12-251.42h54.17l-38.05,289.47h-94.28l-37.22-257.21h-7.45ZM544.23,1215.06h-28.82v-287.52h-103.48v-25.87h235.57v25.87h-103.27v287.52ZM833.12,1109.89h-172.64c.37,15.88,3.41,30.04,9.11,42.49,6.1,13.32,14.79,23.7,26.08,31.13,11.29,7.43,24.71,11.15,40.28,11.15,11.08,0,21.06-1.89,29.97-5.68,8.9-3.78,16.41-9.01,22.51-15.67,6.1-6.66,10.48-14.33,13.15-23.03l27.13,1.89c-3.09,13.18-9.01,24.86-17.77,35.02-8.76,10.17-19.56,18.13-32.39,23.87-12.83,5.75-27.1,8.62-42.8,8.62-21.03,0-39.23-5.01-54.58-15.04-15.35-10.03-27.2-23.84-35.55-41.44-8.34-17.6-12.51-37.61-12.51-60.05s4.28-42.91,12.83-60.58c8.55-17.67,20.36-31.55,35.44-41.64,15.07-10.1,32.49-15.14,52.27-15.14,14.44,0,27.73,2.7,39.86,8.1,12.13,5.4,22.64,13.14,31.55,23.24,8.9,10.1,15.81,22.19,20.72,36.28,4.91,14.09,7.36,29.83,7.36,47.22v9.26ZM866.35,652.91h-56.24v106.69c0,8.27,3.86,12.41,11.58,12.41h39.7v43.01h-57.89c-13.51,0-24.47-4.2-32.88-12.61-8.41-8.41-12.61-19.64-12.61-33.7v-115.79h-51.28v-43.01h51.28v-63.68h52.1v63.68h56.24v43.01ZM1052.8,1174.89c-5.19,8.83-11.82,16.61-19.88,23.34-8.06,6.73-17.25,11.96-27.56,15.67-10.31,3.71-21.49,5.57-33.55,5.57-20.19,0-37.93-4.98-53.21-14.93-15.28-9.96-27.24-23.7-35.86-41.22-8.62-17.53-12.93-37.65-12.93-60.37s4.31-43.08,12.93-60.68c8.62-17.6,20.58-31.41,35.86-41.44,15.28-10.02,33.02-15.04,53.21-15.04,12.06,0,23.24,1.86,33.55,5.57,10.31,3.72,19.46,8.9,27.45,15.56,7.99,6.66,14.58,14.41,19.77,23.24,5.19,8.84,8.76,18.44,10.73,28.82l-27.34,1.89c-1.54-7.01-4.1-13.53-7.68-19.56-3.58-6.03-8.1-11.32-13.57-15.88-5.47-4.56-11.78-8.13-18.93-10.73-7.15-2.59-15.15-3.89-23.98-3.89-15.28,0-28.46,3.93-39.54,11.78-11.08,7.85-19.63,18.72-25.66,32.6-6.03,13.88-9.04,29.8-9.04,47.74s3.01,33.8,9.04,47.54c6.03,13.74,14.58,24.5,25.66,32.28,11.08,7.78,24.26,11.67,39.54,11.67,8.83,0,16.83-1.23,23.98-3.68,7.15-2.45,13.39-5.99,18.72-10.62,5.33-4.63,9.78-9.99,13.36-16.09,3.58-6.1,6.2-12.65,7.89-19.67l27.76,1.89c-1.97,10.24-5.54,19.77-10.73,28.61ZM1111.98,815.01h-52.1v-118.27c0-15.44-3.79-27.02-11.37-34.74-7.58-7.72-18.4-11.58-32.46-11.58-15.99,0-28.4,5.31-37.22,15.92-8.82,10.61-13.23,25.43-13.23,44.46v104.21h-52.11v-289.47h52.11v109.58h7.44c2.2-4.41,5.65-8.82,10.34-13.23,4.68-4.41,10.96-8.06,18.81-10.96,7.86-2.89,17.85-4.34,29.98-4.34,15.99,0,29.98,3.65,41.97,10.96,11.99,7.31,21.29,17.37,27.91,30.19,6.62,12.82,9.92,27.78,9.92,44.87v122.4ZM1290.99,1215.06h-27.34v-141.13c0-19.77-5.33-35.09-15.99-45.96-10.66-10.87-25.03-16.3-43.12-16.3-12.2,0-23.17,2.49-32.92,7.47-9.75,4.98-17.49,12.37-23.24,22.19-5.75,9.82-8.62,21.88-8.62,36.18v137.56h-27.34v-313.39h27.34v124.21c5.95-11.02,13.56-19.65,22.82-25.88,13.67-9.18,29.34-13.78,47.01-13.78,15.56,0,29.48,3.33,41.75,9.99,12.27,6.66,21.94,16.34,29.03,29.03,7.08,12.69,10.62,28.36,10.62,47.01v142.81ZM1475.88,815.01h-52.1v-118.27c0-15.44-3.79-27.02-11.37-34.74-7.58-7.72-18.4-11.58-32.46-11.58-15.99,0-28.4,5.31-37.22,15.92-8.82,10.61-13.23,25.43-13.23,44.46v104.21h-52.11v-205.11h51.28v26.88h7.44c3.31-7.17,9.51-13.99,18.61-20.47,9.1-6.48,22.88-9.72,41.35-9.72,15.99,0,29.98,3.65,41.97,10.96,11.99,7.31,21.3,17.37,27.91,30.19,6.62,12.82,9.92,27.78,9.92,44.87v122.4Z"/>
</svg>