<?xml version="1.0" encoding="UTF-8"?>
<svg id="Main" xmlns="http://www.w3.org/2000/svg" viewBox="0 0 1800 1800">
  <defs>
    <style>
      .cls-1 {
        fill: #350066;
      }
    </style>
  </defs>
  <path class="cls-1" d="M769.13,1023.36c-11-7.14-23.85-10.71-38.55-10.71s-27.88,3.68-39.09,11.03c-11.21,7.35-19.92,17.49-26.13,30.41-5.01,10.42-8,22.16-8.97,35.23h147.4c-.85-13.39-3.83-25.42-8.96-36.09-6.14-12.78-14.71-22.74-25.7-29.88Z"/>
  <path class="cls-1" d="M1651.98,728.19v-274.41h-224.69v-139.51H0v766.17h181.75v147.3h235.75v258h1382.51v-757.55h-148.02ZM1171.46,518.68h55.59v294.78h-55.59v-294.78ZM612.03,522.05c6.6-6.18,14.67-9.26,24.21-9.26s17.97,3.09,24.43,9.26c6.45,6.18,9.69,14.32,9.69,24.42s-3.23,18.25-9.69,24.42c-6.46,6.18-14.6,9.26-24.43,9.26s-17.62-3.09-24.21-9.26c-6.6-6.18-9.9-14.32-9.9-24.42s3.3-18.25,9.9-24.42ZM662.77,604.58v208.87h-53.06v-208.87h53.06ZM387.36,551.52l-37.9,261.93h-96.02l-38.74-294.78h55.17l28.63,256.03h7.58l37.06-256.03h96.02l37.06,256.03h7.58l28.63-256.03h55.17l-38.74,294.78h-96.01l-37.9-261.93h-7.58ZM537.71,1220.84h-29.34v-292.79h-105.38v-26.35h239.89v26.35h-105.17v292.79ZM831.89,1113.74h-175.81c.38,16.17,3.47,30.59,9.28,43.27,6.21,13.57,15.06,24.13,26.56,31.7,11.49,7.57,25.17,11.35,41.02,11.35,11.28,0,21.45-1.93,30.52-5.78,9.07-3.85,16.71-9.17,22.92-15.96,6.21-6.78,10.67-14.6,13.39-23.45l27.63,1.93c-3.14,13.42-9.18,25.31-18.1,35.66-8.92,10.35-19.92,18.46-32.99,24.31-13.07,5.85-27.6,8.78-43.59,8.78-21.42,0-39.95-5.1-55.58-15.31-15.64-10.21-27.7-24.28-36.2-42.2-8.49-17.92-12.74-38.3-12.74-61.15s4.35-43.69,13.06-61.69c8.71-17.99,20.74-32.13,36.09-42.41,15.35-10.28,33.09-15.42,53.23-15.42,14.71,0,28.24,2.75,40.59,8.25,12.35,5.5,23.06,13.38,32.13,23.66,9.07,10.28,16.1,22.6,21.1,36.95,5,14.35,7.5,30.38,7.5,48.08v9.43ZM865.73,648.38h-57.27v108.65c0,8.42,3.93,12.63,11.79,12.63h40.43v43.8h-58.96c-13.76,0-24.92-4.28-33.48-12.84-8.56-8.56-12.84-20-12.84-34.32v-117.91h-52.22v-43.8h52.22v-64.85h53.06v64.85h57.27v43.8ZM1055.6,1179.93c-5.28,8.99-12.03,16.92-20.24,23.77-8.21,6.85-17.57,12.17-28.06,15.96-10.5,3.78-21.88,5.68-34.16,5.68-20.56,0-38.63-5.07-54.19-15.21-15.56-10.14-27.74-24.13-36.52-41.98-8.78-17.85-13.17-38.34-13.17-61.47s4.39-43.87,13.17-61.79c8.78-17.92,20.95-31.99,36.52-42.2,15.56-10.21,33.63-15.31,54.19-15.31,12.28,0,23.67,1.89,34.16,5.68,10.5,3.78,19.81,9.07,27.95,15.85,8.14,6.78,14.85,14.67,20.13,23.67,5.28,9,8.93,18.78,10.92,29.34l-27.84,1.93c-1.57-7.14-4.18-13.78-7.82-19.92-3.64-6.14-8.25-11.53-13.82-16.17-5.57-4.64-11.99-8.28-19.28-10.92-7.28-2.64-15.42-3.96-24.42-3.96-15.56,0-28.99,4-40.27,12-11.28,8-19.99,19.06-26.13,33.2-6.14,14.14-9.21,30.34-9.21,48.62s3.07,34.42,9.21,48.41c6.14,13.99,14.85,24.95,26.13,32.88,11.28,7.92,24.7,11.89,40.27,11.89,8.99,0,17.13-1.25,24.42-3.75,7.28-2.5,13.63-6.1,19.06-10.82,5.43-4.71,9.96-10.17,13.6-16.39,3.64-6.21,6.32-12.89,8.03-20.03l28.27,1.93c-2,10.43-5.64,20.14-10.92,29.13ZM1115.87,813.45h-53.06v-120.44c0-15.72-3.86-27.51-11.58-35.37-7.72-7.86-18.74-11.79-33.06-11.79-16.29,0-28.92,5.41-37.9,16.21-8.98,10.81-13.47,25.9-13.47,45.27v106.12h-53.06v-294.78h53.06v111.59h7.58c2.25-4.49,5.75-8.99,10.53-13.48,4.77-4.49,11.16-8.21,19.16-11.16,8-2.95,18.18-4.42,30.53-4.42,16.28,0,30.53,3.72,42.74,11.16,12.21,7.44,21.69,17.69,28.43,30.74,6.74,13.05,10.11,28.29,10.11,45.69v124.65ZM1298.17,1220.84h-27.85v-143.72c0-20.13-5.43-35.73-16.28-46.8-10.85-11.07-25.49-16.6-43.91-16.6-12.42,0-23.6,2.54-33.52,7.6-9.93,5.07-17.82,12.6-23.67,22.59-5.86,10-8.78,22.28-8.78,36.84v140.08h-27.84v-319.14h27.84v126.49c6.06-11.23,13.8-20.01,23.24-26.35,13.92-9.35,29.88-14.03,47.87-14.03,15.85,0,30.02,3.39,42.51,10.17,12.49,6.78,22.35,16.64,29.56,29.56,7.21,12.92,10.82,28.88,10.82,47.87v145.43ZM1486.44,813.45h-53.06v-120.44c0-15.72-3.86-27.51-11.58-35.37-7.72-7.86-18.74-11.79-33.06-11.79-16.29,0-28.92,5.41-37.9,16.21-8.98,10.81-13.47,25.9-13.47,45.27v106.12h-53.06v-208.87h52.22v27.37h7.58c3.37-7.3,9.68-14.25,18.95-20.84,9.26-6.6,23.3-9.9,42.11-9.9,16.28,0,30.53,3.72,42.74,11.16,12.21,7.44,21.69,17.69,28.43,30.74,6.74,13.05,10.11,28.29,10.11,45.69v124.65Z"/>
</svg>