<?xml version="1.0" encoding="UTF-8"?>
<svg id="Layer_1" data-name="Layer 1" xmlns="http://www.w3.org/2000/svg" viewBox="0 0 48 48">
  <defs>
    <style>
      .cls-1 {
        fill: #350066;
      }
    </style>
  </defs>
  <path class="cls-1" d="M21.96,28.15c-.3-.19-.64-.29-1.04-.29s-.75.1-1.05.3c-.3.2-.54.47-.7.82-.13.28-.21.6-.24.95h3.96c-.02-.36-.1-.68-.24-.97-.17-.34-.4-.61-.69-.8Z"/>
  <path class="cls-1" d="M48,12h-12s0-12,0-12H0s0,36,0,36h12s0,12,0,12h36V12ZM32.63,14.58h1.49v7.93h-1.49v-7.93ZM17.59,14.67c.18-.17.39-.25.65-.25s.48.08.66.25c.17.17.26.38.26.66s-.09.49-.26.66c-.17.17-.39.25-.66.25s-.47-.08-.65-.25c-.18-.17-.27-.38-.27-.66s.09-.49.27-.66ZM18.95,16.89v5.62h-1.43v-5.62h1.43ZM11.75,15.46h-.2l-1.02,7.04h-2.58l-1.04-7.93h1.48l.77,6.88h.2l1-6.88h2.58l1,6.88h.2l.77-6.88h1.48l-1.04,7.93h-2.58l-1.02-7.04ZM15.74,33.46h-.79v-7.87h-2.83v-.71h6.45v.71h-2.83v7.87ZM23.65,30.58h-4.73c.01.43.09.82.25,1.16.17.36.4.65.71.85.31.2.68.31,1.1.31.3,0,.58-.05.82-.16.24-.1.45-.25.62-.43.17-.18.29-.39.36-.63l.74.05c-.08.36-.25.68-.49.96-.24.28-.54.5-.89.65-.35.16-.74.24-1.17.24-.58,0-1.07-.14-1.49-.41-.42-.27-.74-.65-.97-1.13-.23-.48-.34-1.03-.34-1.64s.12-1.17.35-1.66c.23-.48.56-.86.97-1.14.41-.28.89-.41,1.43-.41.4,0,.76.07,1.09.22.33.15.62.36.86.64.24.28.43.61.57.99s.2.82.2,1.29v.25ZM24.41,18.06h-1.54v2.92c0,.23.11.34.32.34h1.09v1.18h-1.59c-.37,0-.67-.11-.9-.35-.23-.23-.35-.54-.35-.92v-3.17h-1.4v-1.18h1.4v-1.74h1.43v1.74h1.54v1.18ZM29.67,32.36c-.14.24-.32.45-.54.64-.22.18-.47.33-.75.43-.28.1-.59.15-.92.15-.55,0-1.04-.14-1.46-.41-.42-.27-.75-.65-.98-1.13-.24-.48-.35-1.03-.35-1.65s.12-1.18.35-1.66c.24-.48.56-.86.98-1.13.42-.27.9-.41,1.46-.41.33,0,.64.05.92.15.28.1.53.24.75.43.22.18.4.39.54.64.14.24.24.5.29.79l-.75.05c-.04-.19-.11-.37-.21-.54-.1-.17-.22-.31-.37-.43-.15-.12-.32-.22-.52-.29-.2-.07-.41-.11-.66-.11-.42,0-.78.11-1.08.32-.3.22-.54.51-.7.89-.17.38-.25.82-.25,1.31s.08.93.25,1.3c.16.38.4.67.7.88.3.21.66.32,1.08.32.24,0,.46-.03.66-.1.2-.07.37-.16.51-.29.15-.13.27-.27.37-.44.1-.17.17-.35.22-.54l.76.05c-.05.28-.15.54-.29.78ZM31.13,22.5h-1.43v-3.24c0-.42-.1-.74-.31-.95-.21-.21-.5-.32-.89-.32-.44,0-.78.15-1.02.44-.24.29-.36.7-.36,1.22v2.85h-1.43v-7.93h1.43v3h.2c.06-.12.15-.24.28-.36.13-.12.3-.22.52-.3.22-.08.49-.12.82-.12.44,0,.82.1,1.15.3.33.2.58.48.76.83.18.35.27.76.27,1.23v3.35ZM36.19,33.46h-.75v-3.86c0-.54-.15-.96-.44-1.26-.29-.3-.69-.45-1.18-.45-.33,0-.63.07-.9.2-.27.14-.48.34-.64.61-.16.27-.24.6-.24.99v3.77h-.75v-8.58h.75v3.4c.16-.3.37-.54.62-.71.37-.25.8-.38,1.29-.38.43,0,.81.09,1.14.27.34.18.6.45.79.79.19.35.29.78.29,1.29v3.91ZM41.1,22.5h-1.43v-3.24c0-.42-.1-.74-.31-.95-.21-.21-.5-.32-.89-.32-.44,0-.78.15-1.02.44-.24.29-.36.7-.36,1.22v2.85h-1.43v-5.62h1.4v.74h.2c.09-.2.26-.38.51-.56.25-.18.63-.27,1.13-.27.44,0,.82.1,1.15.3.33.2.58.48.76.83.18.35.27.76.27,1.23v3.35Z"/>
</svg>